<?xml version="1.0" standalone="no"?><!-- Generator: Gravit.io --><svg xmlns="http://www.w3.org/2000/svg" xmlns:xlink="http://www.w3.org/1999/xlink" style="isolation:isolate" viewBox="0 0 450 450" width="50" height="50"><defs><clipPath id="_clipPath_zNMc8mTeoN30gkUzd7glWakACWVBWb02"><rect width="450" height="450"/></clipPath></defs><g clip-path="url(#_clipPath_zNMc8mTeoN30gkUzd7glWakACWVBWb02)"><g id="Group"><path d=" M 300.587 315.19 C 288.493 315.19 294.52 287.011 294.52 282.95 C 295.547 280.944 285.469 161.034 285.469 161.034 C 286.497 156.972 288.493 151.933 295.547 151.933 L 297.553 151.933 C 313.698 151.933 327.788 138.831 327.788 122.726 C 327.788 106.581 314.686 93.469 297.553 93.469 C 281.458 93.469 267.318 106.581 267.318 122.726 C 267.318 125.75 267.318 128.743 268.346 131.777 C 268.346 131.777 274.363 146.894 261.292 144.888 C 261.292 144.888 147.408 184.173 142.369 185.201 C 128.229 210.397 91.978 197.295 80.872 189.212 C 77.848 185.201 71.821 182.168 64.777 182.168 C 52.561 182.255 42.674 192.124 42.564 204.34 C 43.592 215.436 53.67 225.514 65.764 225.514 C 69.826 225.514 74.865 224.486 77.858 222.491 C 95.999 213.42 129.267 219.447 133.288 235.592 L 133.288 236.62 C 134.296 239.603 157.476 285.983 160.51 289.994 C 175.627 318.223 138.297 329.33 138.297 329.33 C 128.219 329.33 119.169 338.38 119.169 349.486 C 119.169 361.57 129.247 371.648 141.341 371.648 C 153.414 371.648 163.493 361.57 163.493 349.476 C 166.526 326.296 178.61 311.179 200.822 310.151 C 203.806 311.179 258.258 307.168 262.269 306.14 C 278.415 309.163 269.324 322.285 269.324 344.437 C 269.324 360.542 282.426 373.664 299.559 373.664 C 315.694 373.664 329.793 360.542 329.793 344.437 C 330.811 328.312 317.699 315.19 300.577 315.19 L 300.587 315.19 Z " fill="rgb(46,125,50)"/><path d=" M 367.123 167.06 C 358.022 167.06 350.978 171.112 347.944 179.134 C 338.894 192.246 319.725 195.279 307.631 189.212 C 305.626 184.173 178.63 149.927 178.63 150.955 C 162.525 160.006 147.408 131.777 148.396 118.665 L 148.396 117.687 C 149.413 114.654 149.413 111.62 149.413 108.587 C 149.413 92.492 136.312 79.38 119.179 79.38 C 103.033 79.38 88.944 92.482 88.944 108.587 C 88.944 121.698 97.994 131.777 108.073 136.816 C 125.246 143.87 148.385 164.027 146.38 178.156 C 153.435 190.24 137.33 252.715 138.317 257.754 C 129.257 266.855 111.106 264.809 104.061 261.816 C 101.038 257.754 95.011 255.749 88.944 255.749 C 72.799 255.749 58.71 268.85 58.71 284.955 C 58.71 301.101 71.811 314.212 88.944 314.212 C 99.022 314.212 107.085 310.151 113.112 302.118 C 122.212 289.017 137.33 276.923 150.441 276.923 C 152.447 279.916 314.676 216.454 314.676 215.436 C 315.704 209.369 339.871 203.342 361.056 208.381 L 367.123 208.381 C 379.207 208.381 389.285 198.303 389.285 186.229 C 389.285 174.095 379.207 167.05 367.113 167.05 L 367.123 167.06 Z " fill="rgb(76,175,80)"/><path d=" M 315.704 225.514 C 315.704 275.593 275.079 316.218 225 316.218 C 174.921 316.218 134.296 275.593 134.296 225.514 C 134.296 175.435 174.921 134.81 225 134.81 C 275.079 134.81 315.704 175.435 315.704 225.514 Z " fill="rgb(76,175,80)"/><path d=" M 248.18 311.179 C 251.224 305.112 240.117 303.116 231.067 303.116 C 221.966 303.116 212.916 308.155 214.922 314.202 C 239.089 350.464 220.989 355.503 209.883 362.598 C 200.832 366.609 194.765 377.715 194.765 387.793 C 194.765 403.888 207.867 417 225 417 C 242.133 417 255.235 403.898 255.235 387.793 C 256.263 359.564 238.102 320.229 248.18 311.179 Z  M 375.145 254.721 C 369.128 254.721 363.061 255.749 359.05 258.782 C 340.899 265.827 324.754 252.715 312.67 244.642 C 306.654 240.631 299.569 250.71 297.553 253.743 C 295.547 256.767 292.514 270.866 304.608 270.866 C 324.764 263.811 349.96 299.085 349.96 299.085 C 354.011 309.163 365.077 315.19 377.201 315.19 C 393.296 315.19 407.436 302.129 407.436 285.983 C 404.402 267.842 391.29 254.721 375.145 254.721 Z  M 198.776 79.38 C 217.955 118.665 216.927 133.782 205.872 137.834 C 196.771 144.888 211.888 153.939 222.994 151.943 C 234.05 149.927 244.128 144.888 237.084 134.81 C 219.961 104.575 242.123 84.419 242.123 84.419 C 249.178 80.408 254.217 71.317 254.217 62.247 C 254.217 46.122 241.145 33 223.982 33 C 206.849 33 193.747 46.112 193.747 62.257 C 193.747 66.268 194.765 71.307 196.771 75.359 C 196.771 78.352 196.771 78.352 198.787 79.38 L 198.776 79.38 Z " fill="rgb(139,195,74)"/><path d=" M 208.855 225.514 C 192.76 225.514 178.62 212.412 178.62 196.307 C 178.62 180.162 191.732 167.05 208.855 167.05 C 226.028 167.05 239.089 180.162 239.089 196.307 C 239.089 212.402 226.028 225.514 208.855 225.514 Z " fill="rgb(197,225,165)"/><path d=" M 193.737 269.838 C 184.687 269.838 178.62 263.821 178.62 254.721 C 178.62 245.67 184.687 239.603 193.737 239.603 C 202.838 239.603 208.855 245.67 208.855 254.721 C 208.855 263.821 202.838 269.838 193.737 269.838 Z " fill="rgb(241,248,233)"/><path d=" M 247.172 285.983 C 235.078 285.983 225 275.905 225 263.811 C 225 251.737 235.078 241.659 247.172 241.659 C 259.246 241.659 269.324 251.737 269.324 263.821 C 269.324 275.905 259.246 285.983 247.162 285.983 L 247.172 285.983 Z " fill="rgb(220,237,200)"/></g></g></svg>